<svg width="811" height="129" viewBox="0 0 811 129" fill="none" xmlns="http://www.w3.org/2000/svg">
<path d="M281.027 62.289H272.576L277.575 53.6132H267.63L271.855 46.288L268.558 44.3658L264.332 51.7429L259.334 43.0151L254.336 51.7429L250.111 44.3658L246.813 46.288L251.038 53.6132H241.093L246.092 62.289H237.693V66.1334H246.092L241.093 74.8091H251.038L246.813 82.1862L250.111 84.1087L254.336 76.7316L259.334 85.4073L264.332 76.6796L268.558 84.0567L271.855 82.1342L267.63 74.7571H277.575L272.576 66.0813H281.027V62.237V62.289ZM253.254 70.9647H247.74L250.523 66.1334H256.036L253.254 70.9647ZM250.523 62.289L247.74 57.4575H253.254L256.036 62.289H250.523ZM259.334 77.7186L256.603 72.8872L259.334 68.0553L262.117 72.8872L259.334 77.7186ZM259.334 60.3665L256.603 55.5354L259.334 50.7039L262.117 55.5354L259.334 60.3665ZM265.414 70.9647L262.632 66.1334H268.145L270.927 70.9647H265.414ZM268.145 62.289H262.632L265.414 57.4575H270.927L268.145 62.289Z" fill="#0081C6"/>
<path d="M85.0706 58.4442H59.513C57.0397 58.4442 54.9786 56.3662 54.9786 53.8726V52.314C54.9786 49.7684 56.9882 47.7423 59.513 47.7423H97.2308V35.8975H59.513C50.5473 35.8975 43.2305 43.2745 43.2305 52.314V53.8726C43.2305 62.912 50.5473 70.2891 59.513 70.2891H85.0706C87.5952 70.2891 89.6045 72.3671 89.6045 74.8609V76.4191C89.6045 78.9649 87.5435 80.9908 85.0706 80.9908H45.8069V92.8356H85.0706C89.4501 92.8356 93.5209 91.1213 96.561 88.0042C99.6527 84.9393 101.353 80.7833 101.353 76.4191V74.8609C101.353 70.4446 99.6527 66.3407 96.561 63.2757C93.4693 60.1587 89.3984 58.4962 85.0706 58.4962" fill="white"/>
<path d="M153.756 76.4191C153.756 78.9649 151.695 80.9908 149.119 80.9908H125.571C123.098 80.9908 121.036 78.9128 121.036 76.4191V35.8975H109.288V76.4191C109.288 85.4591 116.605 92.8356 125.571 92.8356H149.119C153.498 92.8356 157.621 91.1213 160.712 88.0563C163.804 84.9393 165.504 80.8353 165.504 76.4191V35.8975H153.756V76.4191Z" fill="white"/>
<path d="M216.103 35.8975H176.273V92.8356H216.103C220.483 92.8356 224.605 91.1213 227.697 88.0563C230.788 84.9393 232.489 80.8353 232.489 76.4191V74.1335C232.489 70.2371 231.149 66.5488 228.779 63.6394C231.201 60.6779 232.489 56.9376 232.489 53.0933V52.366C232.489 47.9501 230.788 43.846 227.697 40.7289C224.605 37.6118 220.483 35.9494 216.103 35.9494M188.021 69.5618H216.103C218.628 69.5618 220.741 71.5877 220.741 74.1335V76.4191C220.741 78.9649 218.679 80.9908 216.103 80.9908H188.021V69.5618ZM216.103 57.613H188.021V47.7423H216.103C218.628 47.7423 220.741 49.8204 220.741 52.314V53.0413C220.741 55.5869 218.731 57.613 216.103 57.613Z" fill="white"/>
<path d="M350.125 40.7289C347.034 43.794 345.333 47.9501 345.333 52.314V76.4191C345.333 80.8353 347.033 84.9393 350.074 88.0563C353.165 91.1733 357.236 92.8356 361.615 92.8356H401.497V80.9908H361.615C359.09 80.9908 357.081 78.9128 357.081 76.4191V70.2891H394.799V58.4442H357.081V52.314C357.081 49.7684 359.09 47.7423 361.615 47.7423H401.497V35.8975H361.615C357.236 35.8975 353.165 37.6118 350.125 40.7289Z" fill="white"/>
<path d="M470.08 59.7949V52.314C470.08 47.8982 468.38 43.794 465.288 40.7289C462.196 37.6118 458.074 35.8975 453.695 35.8975H413.864V92.8356H425.612V76.3156H440.762L457.147 92.8356H473.996L457.147 75.9519C464.618 74.3411 469.977 67.7434 470.029 59.8469M425.664 47.7423H453.747C456.323 47.7423 458.384 49.7684 458.384 52.314V59.7949C458.384 62.2887 456.323 64.3667 453.747 64.3667H425.664V47.7423Z" fill="white"/>
<path d="M533.406 40.6769C530.315 37.5599 526.193 35.8975 521.812 35.8975H498.265C493.885 35.8975 489.815 37.6118 486.723 40.7289C483.631 43.794 481.982 47.9501 481.982 52.314V76.4191C481.982 80.8353 483.683 84.9393 486.723 88.0042C489.815 91.1213 493.885 92.8356 498.265 92.8356H521.812C526.193 92.8356 530.315 91.1213 533.406 88.0563C536.498 84.9913 538.198 80.8353 538.198 76.4191V52.314C538.198 47.8982 536.498 43.794 533.406 40.7289M493.731 52.314C493.731 49.7684 495.74 47.7423 498.265 47.7423H521.812C524.338 47.7423 526.45 49.7684 526.45 52.314V76.4191C526.45 78.9649 524.389 80.9908 521.812 80.9908H498.265C495.792 80.9908 493.731 78.9128 493.731 76.4191V52.314Z" fill="white"/>
<path d="M298.135 80.993C297.517 80.993 297.053 80.4738 297.053 79.9025C297.053 79.5389 297.259 79.1752 297.517 78.967L330.957 58.0828C334.925 55.3814 337.14 51.4331 337.14 47.277C337.14 44.2638 335.904 41.3545 333.688 39.3285C331.37 37.1465 328.123 35.9517 324.517 35.9517H282.265V47.7965H321.064C321.683 47.7965 322.146 48.316 322.146 48.8875C322.146 49.2512 321.94 49.6148 321.683 49.8226L287.16 71.4344C283.45 73.772 281.388 77.4609 281.388 81.4087C281.388 84.4222 282.677 87.3311 284.944 89.4611C287.366 91.6953 290.818 92.9418 294.579 92.9418H336.161V81.0971H298.083L298.135 80.993Z" fill="white"/>
<path d="M746.398 95.8033C740.257 95.8033 734.972 94.5605 730.541 92.0749C726.137 89.5635 722.743 86.0164 720.359 81.4337C717.975 76.8251 716.784 71.3751 716.784 65.0835C716.784 58.9474 717.975 53.562 720.359 48.9275C722.743 44.2931 726.098 40.6813 730.425 38.0921C734.777 35.503 739.882 34.2085 745.737 34.2085C749.675 34.2085 753.341 34.8428 756.735 36.1115C760.155 37.3543 763.135 39.2314 765.674 41.7428C768.239 44.2542 770.234 47.4129 771.659 51.2189C773.084 54.999 773.796 59.4264 773.796 64.501V69.0449H723.39V58.792H758.212C758.212 56.4101 757.694 54.2999 756.658 52.4617C755.621 50.6234 754.183 49.1865 752.344 48.1508C750.53 47.0893 748.419 46.5585 746.009 46.5585C743.496 46.5585 741.268 47.1411 739.325 48.3062C737.407 49.4454 735.905 50.9859 734.816 52.9277C733.728 54.8436 733.171 56.9797 733.145 59.3357V69.0837C733.145 72.0353 733.689 74.5856 734.777 76.7345C735.892 78.8835 737.459 80.5405 739.48 81.7056C741.501 82.8707 743.897 83.4532 746.67 83.4532C748.509 83.4532 750.193 83.1943 751.722 82.6765C753.251 82.1587 754.559 81.382 755.647 80.3463C756.735 79.3107 757.564 78.042 758.134 76.5403L773.447 77.5501C772.669 81.2266 771.076 84.4371 768.666 87.1815C766.283 89.9001 763.2 92.0232 759.417 93.5507C755.66 95.0524 751.32 95.8033 746.398 95.8033Z" fill="white"/>
<path d="M677.191 94.6392V34.9862H693.242V45.3944H693.864C694.952 41.692 696.779 38.8958 699.344 37.0057C701.909 35.0898 704.862 34.1318 708.204 34.1318C709.034 34.1318 709.927 34.1836 710.886 34.2872C711.845 34.3907 712.687 34.5332 713.412 34.7144V49.3946C712.635 49.1616 711.56 48.9545 710.187 48.7732C708.813 48.592 707.557 48.5014 706.417 48.5014C703.981 48.5014 701.805 49.0321 699.888 50.0937C697.996 51.1293 696.494 52.5792 695.38 54.4434C694.291 56.3075 693.747 58.4565 693.747 60.8902V94.6392H677.191Z" fill="white"/>
<path d="M630.731 95.7644C626.922 95.7644 623.528 95.1042 620.548 93.7838C617.569 92.4374 615.211 90.4568 613.475 87.8418C611.765 85.2009 610.91 81.9127 610.91 77.9773C610.91 74.6632 611.519 71.8799 612.737 69.6274C613.954 67.3749 615.613 65.5625 617.711 64.1903C619.81 62.8181 622.194 61.7824 624.862 61.0834C627.557 60.3843 630.381 59.8924 633.334 59.6076C636.806 59.2451 639.604 58.9085 641.729 58.5978C643.853 58.2613 645.395 57.7693 646.354 57.1221C647.312 56.4748 647.792 55.5168 647.792 54.2482V54.0151C647.792 51.5555 647.014 49.6525 645.46 48.3062C643.931 46.9598 641.755 46.2867 638.931 46.2867C635.951 46.2867 633.581 46.9469 631.819 48.2673C630.057 49.5619 628.891 51.193 628.321 53.1607L613.009 51.918C613.786 48.2932 615.315 45.1604 617.595 42.5195C619.875 39.8527 622.815 37.8073 626.417 36.3833C630.044 34.9334 634.241 34.2085 639.008 34.2085C642.325 34.2085 645.499 34.5969 648.53 35.3736C651.587 36.1503 654.295 37.3543 656.652 38.9854C659.036 40.6165 660.915 42.7137 662.288 45.2769C663.661 47.8142 664.347 50.8564 664.347 54.4035V94.6382H648.647V86.366H648.18C647.222 88.2301 645.939 89.8742 644.333 91.2982C642.726 92.6963 640.796 93.7967 638.542 94.5993C636.288 95.3761 633.684 95.7644 630.731 95.7644ZM635.472 84.3465C637.907 84.3465 640.058 83.8675 641.923 82.9095C643.789 81.9257 645.253 80.6052 646.315 78.9482C647.377 77.2912 647.908 75.4141 647.908 73.3169V66.9865C647.39 67.3231 646.678 67.6338 645.771 67.9186C644.89 68.1775 643.892 68.4235 642.778 68.6565C641.664 68.8636 640.55 69.0578 639.436 69.2391C638.322 69.3944 637.311 69.5368 636.405 69.6663C634.461 69.9511 632.764 70.4042 631.313 71.0255C629.863 71.6469 628.736 72.4884 627.932 73.5499C627.129 74.5856 626.728 75.8801 626.728 77.4336C626.728 79.6861 627.544 81.4078 629.176 82.5988C630.834 83.7639 632.933 84.3465 635.472 84.3465Z" fill="white"/>
<path d="M576.447 95.8033C570.333 95.8033 565.073 94.5087 560.669 91.9196C556.29 89.3046 552.922 85.6799 550.564 81.0454C548.232 76.4109 547.066 71.0773 547.066 65.0447C547.066 58.9344 548.245 53.575 550.603 48.9664C552.987 44.3319 556.368 40.7201 560.746 38.131C565.125 35.516 570.333 34.2085 576.369 34.2085C581.577 34.2085 586.137 35.1535 590.049 37.0436C593.962 38.9336 597.058 41.5874 599.338 45.0051C601.618 48.4227 602.874 52.4358 603.108 57.0444H587.484C587.044 54.0669 585.878 51.672 583.987 49.8596C582.121 48.0214 579.673 47.1022 576.642 47.1022C574.077 47.1022 571.835 47.8013 569.918 49.1994C568.027 50.5716 566.55 52.5782 565.488 55.2191C564.425 57.86 563.894 61.0575 563.894 64.8117C563.894 68.6177 564.412 71.8541 565.449 74.5208C566.511 77.1876 568.001 79.2201 569.918 80.6182C571.835 82.0163 574.077 82.7153 576.642 82.7153C578.533 82.7153 580.23 82.327 581.733 81.5502C583.261 80.7735 584.518 79.6473 585.502 78.1715C586.513 76.6698 587.174 74.8704 587.484 72.7732H603.108C602.848 77.33 601.605 81.3431 599.377 84.8125C597.174 88.256 594.13 90.9487 590.244 92.8905C586.357 94.8323 581.759 95.8033 576.447 95.8033Z" fill="white"/>
<path d="M0 0C73.2198 9.97459 364.844 11.9191 450.791 11.9191C536.738 11.9191 737.781 10.7592 811 0.784651C802.653 17.9805 796.882 40.2155 796.882 64.8921C796.882 89.5693 802.653 111.856 811 129C737.781 119.026 536.738 117.899 450.791 117.899C364.844 117.899 73.2198 118.241 0 128.215C8.2958 111.019 14.0669 88.7846 14.0669 64.1075C14.0669 39.4309 8.2958 17.1438 0 0ZM792.554 64.8921C792.554 44.4755 796.521 23.9029 803.838 6.13564C747.725 12.9931 585.739 16.3349 450.791 16.3349C315.842 16.3349 63.2749 12.2085 7.16226 5.35099C14.479 23.1702 18.4466 43.7429 18.4466 64.1075C18.4466 84.4724 14.479 105.097 7.16226 122.916C63.3266 116.059 315.893 113.535 450.791 113.535C585.688 113.535 747.725 116.844 803.838 123.701C796.521 105.882 792.554 85.3091 792.554 64.8921Z" fill="white"/>
</svg>
