<svg width="295" height="56" viewBox="0 0 295 56" fill="none" xmlns="http://www.w3.org/2000/svg">
<path d="M102.343 27.6542H99.2708L101.088 24.4981H97.4725L99.0085 21.8334L97.8099 21.1342L96.2737 23.8178L94.457 20.6428L92.64 23.8178L91.104 21.1342L89.9052 21.8334L91.4412 24.4981H87.826L89.643 27.6542H86.5898V29.0527H89.643L87.826 32.2087H91.4412L89.9052 34.8923L91.104 35.5916L92.64 32.908L94.457 36.064L96.2737 32.8891L97.8099 35.5727L99.0085 34.8733L97.4725 32.1897H101.088L99.2708 29.0337H102.343V27.6352V27.6542ZM92.2467 30.8102H90.2424L91.2538 29.0527H93.2582L92.2467 30.8102ZM91.2538 27.6542L90.2424 25.8966H92.2467L93.2582 27.6542H91.2538ZM94.457 33.2671L93.4641 31.5095L94.457 29.7518L95.4684 31.5095L94.457 33.2671ZM94.457 26.9548L93.4641 25.1974L94.457 23.4398L95.4684 25.1974L94.457 26.9548ZM96.6672 30.8102L95.6558 29.0527H97.6599L98.6713 30.8102H96.6672ZM97.6599 27.6542H95.6558L96.6672 25.8966H98.6713L97.6599 27.6542Z" fill="#0081C6"/>
<path d="M31.1083 26.2552H21.8175C20.9184 26.2552 20.1692 25.4992 20.1692 24.5921V24.0251C20.1692 23.0991 20.8997 22.3621 21.8175 22.3621H35.5288V18.0532H21.8175C18.5583 18.0532 15.8984 20.7368 15.8984 24.0251V24.5921C15.8984 27.8804 18.5583 30.564 21.8175 30.564H31.1083C32.026 30.564 32.7564 31.32 32.7564 32.2271V32.794C32.7564 33.7201 32.0072 34.457 31.1083 34.457H16.835V38.7659H31.1083C32.7003 38.7659 34.1802 38.1422 35.2853 37.0084C36.4092 35.8934 37.0272 34.3815 37.0272 32.794V32.2271C37.0272 30.6206 36.4092 29.1277 35.2853 28.0127C34.1614 26.8788 32.6815 26.2741 31.1083 26.2741" fill="black"/>
<path d="M56.0772 32.794C56.0772 33.7201 55.328 34.457 54.3914 34.457H45.8312C44.9322 34.457 44.1828 33.7011 44.1828 32.794V18.0532H39.9121V32.794C39.9121 36.0825 42.572 38.7659 45.8312 38.7659H54.3914C55.9835 38.7659 57.4821 38.1423 58.606 37.0273C59.7297 35.8934 60.3479 34.4005 60.3479 32.794V18.0532H56.0772V32.794Z" fill="black"/>
<path d="M78.7413 18.0532H64.2622V38.7659H78.7413C80.3336 38.7659 81.832 38.1423 82.9559 37.0273C84.0798 35.8934 84.698 34.4005 84.698 32.794V31.9625C84.698 30.5451 84.2108 29.2034 83.3492 28.145C84.2296 27.0677 84.698 25.7071 84.698 24.3086V24.044C84.698 22.4377 84.0798 20.9447 82.9559 19.8108C81.832 18.6769 80.3336 18.0721 78.7413 18.0721M68.5329 30.2994H78.7413C79.6593 30.2994 80.4273 31.0364 80.4273 31.9625V32.794C80.4273 33.7201 79.6779 34.457 78.7413 34.457H68.5329V30.2994ZM78.7413 25.9528H68.5329V22.3621H78.7413C79.6593 22.3621 80.4273 23.118 80.4273 24.0251V24.2897C80.4273 25.2158 79.6966 25.9528 78.7413 25.9528Z" fill="black"/>
<path d="M127.461 19.8108C126.337 20.9258 125.719 22.4377 125.719 24.0251V32.794C125.719 34.4005 126.337 35.8934 127.443 37.0273C128.566 38.1612 130.046 38.7659 131.638 38.7659H146.136V34.457H131.638C130.72 34.457 129.99 33.7011 129.99 32.794V30.564H143.701V26.2552H129.99V24.0251C129.99 23.0991 130.72 22.3621 131.638 22.3621H146.136V18.0532H131.638C130.046 18.0532 128.566 18.6769 127.461 19.8108Z" fill="black"/>
<path d="M171.068 26.7465V24.0251C171.068 22.4188 170.449 20.9258 169.326 19.8108C168.202 18.6769 166.703 18.0532 165.111 18.0532H150.632V38.7659H154.903V32.7563H160.41L166.366 38.7659H172.491L166.366 32.624C169.082 32.038 171.03 29.638 171.049 26.7654M154.921 22.3621H165.13C166.066 22.3621 166.816 23.0991 166.816 24.0251V26.7465C166.816 27.6537 166.066 28.4096 165.13 28.4096H154.921V22.3621Z" fill="black"/>
<path d="M194.088 19.7919C192.964 18.658 191.466 18.0532 189.874 18.0532H181.314C179.721 18.0532 178.242 18.6769 177.118 19.8108C175.994 20.9258 175.395 22.4377 175.395 24.0251V32.794C175.395 34.4005 176.013 35.8934 177.118 37.0084C178.242 38.1422 179.721 38.7659 181.314 38.7659H189.874C191.466 38.7659 192.964 38.1423 194.088 37.0273C195.212 35.9123 195.83 34.4005 195.83 32.794V24.0251C195.83 22.4188 195.212 20.9258 194.088 19.8108M179.665 24.0251C179.665 23.0991 180.396 22.3621 181.314 22.3621H189.874C190.792 22.3621 191.56 23.0991 191.56 24.0251V32.794C191.56 33.7201 190.81 34.457 189.874 34.457H181.314C180.414 34.457 179.665 33.7011 179.665 32.794V24.0251Z" fill="black"/>
<path d="M108.562 34.4572C108.337 34.4572 108.169 34.2683 108.169 34.0605C108.169 33.9282 108.243 33.7959 108.337 33.7202L120.494 26.123C121.936 25.1403 122.741 23.704 122.741 22.1921C122.741 21.096 122.292 20.0377 121.486 19.3007C120.644 18.5069 119.463 18.0723 118.152 18.0723H102.793V22.3811H116.897C117.122 22.3811 117.291 22.5701 117.291 22.778C117.291 22.9103 117.216 23.0426 117.122 23.1182L104.572 30.98C103.224 31.8303 102.474 33.1723 102.474 34.6084C102.474 35.7046 102.943 36.7628 103.767 37.5377C104.647 38.3504 105.902 38.8039 107.269 38.8039H122.385V34.495H108.543L108.562 34.4572Z" fill="black"/>
<path d="M271.515 39.8461C269.283 39.8461 267.362 39.394 265.751 38.4898C264.15 37.5762 262.916 36.2859 262.05 34.6188C261.183 32.9423 260.75 30.9597 260.75 28.671C260.75 26.4388 261.183 24.4798 262.05 22.7939C262.916 21.108 264.136 19.7941 265.709 18.8522C267.291 17.9104 269.147 17.4395 271.275 17.4395C272.707 17.4395 274.04 17.6702 275.273 18.1317C276.517 18.5838 277.6 19.2666 278.523 20.1802C279.455 21.0938 280.18 22.2429 280.698 23.6274C281.216 25.0025 281.475 26.6131 281.475 28.4591V30.112H263.152V26.3823H275.81C275.81 25.5158 275.622 24.7482 275.245 24.0795C274.868 23.4108 274.346 22.8881 273.677 22.5113C273.018 22.1252 272.25 21.9321 271.374 21.9321C270.46 21.9321 269.65 22.144 268.944 22.5678C268.247 22.9822 267.701 23.5426 267.305 24.249C266.91 24.946 266.707 25.723 266.698 26.5801V30.1262C266.698 31.1999 266.896 32.1276 267.291 32.9093C267.696 33.6911 268.266 34.2939 269.001 34.7177C269.735 35.1415 270.606 35.3534 271.614 35.3534C272.283 35.3534 272.895 35.2593 273.451 35.0709C274.007 34.8825 274.482 34.6 274.878 34.2232C275.273 33.8465 275.575 33.385 275.782 32.8387L281.348 33.206C281.066 34.5435 280.486 35.7114 279.611 36.7097C278.744 37.6987 277.623 38.471 276.248 39.0267C274.882 39.5729 273.305 39.8461 271.515 39.8461Z" fill="black"/>
<path d="M246.357 39.4222V17.7219H252.192V21.5082H252.418C252.814 20.1613 253.478 19.1441 254.41 18.4566C255.343 17.7596 256.416 17.4111 257.631 17.4111C257.933 17.4111 258.258 17.43 258.606 17.4676C258.955 17.5053 259.261 17.5571 259.524 17.623V22.9633C259.242 22.8786 258.851 22.8032 258.352 22.7373C257.853 22.6714 257.396 22.6384 256.981 22.6384C256.096 22.6384 255.305 22.8315 254.608 23.2176C253.92 23.5944 253.374 24.1218 252.969 24.8C252.574 25.4781 252.376 26.2598 252.376 27.1452V39.4222H246.357Z" fill="black"/>
<path d="M229.468 39.832C228.083 39.832 226.85 39.5918 225.766 39.1114C224.683 38.6217 223.826 37.9012 223.195 36.9499C222.574 35.9892 222.263 34.793 222.263 33.3614C222.263 32.1559 222.484 31.1434 222.927 30.324C223.369 29.5046 223.972 28.8453 224.735 28.3461C225.498 27.8469 226.364 27.4702 227.335 27.2159C228.314 26.9616 229.341 26.7826 230.414 26.679C231.676 26.5471 232.694 26.4247 233.466 26.3117C234.238 26.1892 234.799 26.0103 235.147 25.7748C235.496 25.5394 235.67 25.1909 235.67 24.7294V24.6446C235.67 23.7499 235.387 23.0576 234.822 22.5678C234.267 22.0781 233.475 21.8332 232.449 21.8332C231.366 21.8332 230.504 22.0734 229.863 22.5537C229.223 23.0246 228.799 23.618 228.592 24.3338L223.026 23.8817C223.308 22.5631 223.864 21.4235 224.693 20.4628C225.521 19.4927 226.59 18.7486 227.9 18.2306C229.218 17.7032 230.744 17.4395 232.477 17.4395C233.683 17.4395 234.836 17.5807 235.938 17.8633C237.05 18.1458 238.034 18.5838 238.891 19.1772C239.758 19.7705 240.44 20.5334 240.94 21.4659C241.439 22.3889 241.688 23.4956 241.688 24.7859V39.4222H235.981V36.413H235.811C235.463 37.0912 234.997 37.6892 234.413 38.2073C233.829 38.7159 233.127 39.1161 232.308 39.4081C231.488 39.6907 230.542 39.832 229.468 39.832ZM231.191 35.6784C232.077 35.6784 232.859 35.5041 233.537 35.1557C234.215 34.7978 234.747 34.3174 235.133 33.7146C235.519 33.1118 235.712 32.429 235.712 31.6661V29.3633C235.524 29.4857 235.265 29.5987 234.935 29.7023C234.615 29.7965 234.252 29.886 233.847 29.9708C233.442 30.0461 233.037 30.1168 232.632 30.1827C232.227 30.2392 231.86 30.291 231.531 30.3381C230.824 30.4417 230.207 30.6065 229.68 30.8326C229.152 31.0586 228.743 31.3647 228.451 31.7509C228.159 32.1276 228.013 32.5985 228.013 33.1636C228.013 33.9831 228.309 34.6094 228.903 35.0426C229.506 35.4665 230.268 35.6784 231.191 35.6784Z" fill="black"/>
<path d="M209.735 39.8456C207.512 39.8456 205.6 39.3747 203.999 38.4328C202.407 37.4815 201.183 36.163 200.326 34.477C199.478 32.7911 199.054 30.8509 199.054 28.6564C199.054 26.4336 199.483 24.484 200.34 22.8075C201.206 21.1216 202.435 19.8077 204.027 18.8659C205.619 17.9146 207.512 17.439 209.707 17.439C211.6 17.439 213.257 17.7827 214.679 18.4703C216.102 19.1578 217.227 20.1232 218.056 21.3665C218.885 22.6097 219.342 24.0696 219.426 25.7461H213.747C213.587 24.663 213.163 23.7917 212.476 23.1325C211.797 22.4637 210.907 22.1294 209.805 22.1294C208.873 22.1294 208.058 22.3837 207.361 22.8923C206.674 23.3915 206.137 24.1214 205.751 25.0821C205.365 26.0428 205.172 27.206 205.172 28.5716C205.172 29.9562 205.36 31.1335 205.737 32.1036C206.123 33.0737 206.664 33.813 207.361 34.3216C208.058 34.8302 208.873 35.0845 209.805 35.0845C210.493 35.0845 211.11 34.9433 211.656 34.6607C212.212 34.3781 212.669 33.9684 213.027 33.4316C213.394 32.8853 213.634 32.2307 213.747 31.4678H219.426C219.332 33.1255 218.88 34.5854 218.07 35.8474C217.27 37.1001 216.163 38.0796 214.75 38.786C213.337 39.4924 211.666 39.8456 209.735 39.8456Z" fill="black"/>
<path d="M0.183105 4.99463C26.8002 8.62313 132.812 9.33049 164.056 9.33049C195.299 9.33049 268.383 8.90857 295 5.28007C291.966 11.5355 289.868 19.624 289.868 28.6007C289.868 37.5777 291.966 45.6851 295 51.9216C268.383 48.2932 195.299 47.8835 164.056 47.8835C132.812 47.8835 26.8002 48.0077 0.183105 51.6361C3.19882 45.3807 5.29673 37.2922 5.29673 28.3153C5.29673 19.3386 3.19882 11.2311 0.183105 4.99463ZM288.294 28.6007C288.294 21.1737 289.737 13.6899 292.396 7.22662C271.998 9.7212 213.113 10.9368 164.056 10.9368C114.999 10.9368 23.185 9.43577 2.78675 6.94118C5.44657 13.4234 6.88886 20.9072 6.88886 28.3153C6.88886 35.7236 5.44657 43.2263 2.78675 49.7085C23.2038 47.2139 115.017 46.2959 164.056 46.2959C213.094 46.2959 271.998 47.4994 292.396 49.9939C289.737 43.5117 288.294 36.0279 288.294 28.6007Z" fill="black"/>
</svg>
