<svg aria-hidden="true" style="position: absolute; width: 0; height: 0; overflow: hidden;" version="1.1" xmlns="http://www.w3.org/2000/svg" xmlns:xlink="http://www.w3.org/1999/xlink">
<defs>
<symbol id="icon-location" viewBox="0 0 28 32">
<path d="M13.369 0c3.546 0 6.948 1.409 9.455 3.916s3.914 5.908 3.914 9.453c0 9.915-12.063 18.072-12.66 18.406-0.206 0.148-0.455 0.227-0.709 0.225-0.253 0.002-0.501-0.077-0.707-0.225-0.525-0.333-12.662-8.491-12.662-18.406 0-3.546 1.409-6.946 3.916-9.453s5.908-3.916 9.453-3.916zM13.369 2.674c-2.847-0.009-5.582 1.112-7.604 3.117s-3.164 4.731-3.178 7.578c0 7.262 8.262 13.904 10.781 15.75 2.519-1.846 10.783-8.488 10.783-15.75-0.014-2.847-1.158-5.573-3.18-7.578s-4.756-3.126-7.603-3.117zM12.445 7.939c0.92-0.183 1.874-0.087 2.74 0.271s1.608 0.966 2.129 1.746c0.521 0.78 0.799 1.698 0.799 2.637-0 1.258-0.499 2.464-1.389 3.354s-2.097 1.389-3.355 1.389c-0.938-0-1.855-0.278-2.635-0.799s-1.389-1.262-1.748-2.129c-0.359-0.867-0.452-1.82-0.27-2.74s0.635-1.766 1.299-2.43c0.663-0.663 1.51-1.116 2.43-1.299zM13.369 10.438c-0.426 0-0.843 0.126-1.197 0.363s-0.632 0.573-0.795 0.967c-0.163 0.394-0.204 0.828-0.121 1.246s0.288 0.802 0.59 1.104 0.685 0.507 1.104 0.59c0.418 0.083 0.852 0.042 1.246-0.121s0.73-0.441 0.967-0.795c0.237-0.354 0.363-0.771 0.363-1.197 0-0.572-0.226-1.121-0.631-1.525s-0.954-0.631-1.525-0.631z"></path>
</symbol>
<symbol id="icon-calandar" viewBox="0 0 28 32">
<path d="M22.054 3.459h-2.162v-2.162c0-0.344-0.137-0.674-0.38-0.917s-0.573-0.38-0.917-0.38c-0.344 0-0.674 0.137-0.917 0.38s-0.38 0.573-0.38 0.917v2.162h-7.784v-2.162c0-0.344-0.137-0.674-0.38-0.917s-0.573-0.38-0.917-0.38c-0.344 0-0.674 0.137-0.917 0.38s-0.38 0.573-0.38 0.917v2.162h-2.162c-1.262 0-2.471 0.501-3.364 1.393s-1.393 2.102-1.393 3.364v19.027c0 1.262 0.501 2.472 1.393 3.364s2.102 1.393 3.364 1.393h17.297c1.262 0 2.472-0.501 3.364-1.393s1.393-2.102 1.393-3.364v-19.027c0-1.262-0.501-2.471-1.393-3.364s-2.102-1.393-3.364-1.393zM4.757 6.054h2.162v2.162c0 0.344 0.137 0.674 0.38 0.917s0.573 0.38 0.917 0.38c0.344 0 0.674-0.137 0.917-0.38s0.38-0.573 0.38-0.917v-2.162h7.784v2.162c0 0.344 0.137 0.674 0.38 0.917s0.573 0.38 0.917 0.38c0.344 0 0.674-0.137 0.917-0.38s0.38-0.573 0.38-0.917v-2.162h2.162c0.573 0 1.123 0.228 1.529 0.633s0.633 0.955 0.633 1.529v4.757h-21.622v-4.757c0-0.573 0.228-1.123 0.633-1.529s0.955-0.633 1.529-0.633zM22.054 29.405h-17.297c-0.573 0-1.123-0.228-1.529-0.633s-0.633-0.956-0.633-1.529v-11.676h21.622v11.676c0 0.573-0.228 1.123-0.633 1.529s-0.956 0.633-1.529 0.633z"></path>
</symbol>
<symbol id="icon-arrow-next" viewBox="0 0 38 32">
<path d="M37.932 17.133l-14.4 14.4c-0.3 0.3-0.707 0.469-1.132 0.469s-0.832-0.169-1.132-0.469c-0.3-0.3-0.469-0.707-0.469-1.132s0.169-0.832 0.469-1.132l11.67-11.668h-31.338c-0.424 0-0.831-0.169-1.131-0.469s-0.469-0.707-0.469-1.131c0-0.424 0.169-0.831 0.469-1.131s0.707-0.469 1.131-0.469h31.338l-11.67-11.668c-0.3-0.3-0.469-0.707-0.469-1.132s0.169-0.832 0.469-1.132c0.3-0.3 0.707-0.469 1.132-0.469s0.832 0.169 1.132 0.469l14.4 14.4c0.148 0.149 0.267 0.325 0.347 0.519s0.122 0.402 0.122 0.613-0.042 0.418-0.122 0.613c-0.081 0.194-0.199 0.371-0.347 0.519z"></path>
</symbol>
<symbol id="icon-arrow-prev" viewBox="0 0 38 32">
<path d="M38.401 16.001c0 0.424-0.169 0.831-0.469 1.131s-0.707 0.469-1.131 0.469h-31.338l11.67 11.668c0.149 0.149 0.267 0.325 0.347 0.519s0.122 0.402 0.122 0.613c0 0.21-0.041 0.418-0.122 0.613s-0.198 0.371-0.347 0.519c-0.149 0.149-0.325 0.267-0.519 0.347s-0.402 0.122-0.613 0.122c-0.21 0-0.418-0.042-0.613-0.122s-0.371-0.198-0.519-0.347l-14.4-14.4c-0.149-0.149-0.267-0.325-0.347-0.519s-0.122-0.402-0.122-0.613c0-0.21 0.041-0.418 0.122-0.613s0.199-0.371 0.347-0.519l14.4-14.4c0.3-0.3 0.707-0.469 1.132-0.469s0.832 0.169 1.132 0.469 0.469 0.707 0.469 1.132c0 0.425-0.169 0.832-0.469 1.132l-11.67 11.668h31.338c0.424 0 0.831 0.169 1.131 0.469s0.469 0.707 0.469 1.131z"></path>
</symbol>
<symbol id="icon-arrow-rotate" viewBox="0 0 32 32">
<path d="M9.213 4.686v3.168h12.671l-18.328 18.328 2.263 2.263 18.328-18.328v12.671h3.168v-18.102h-18.102z"></path>
</symbol>
<symbol id="icon-close" viewBox="0 0 32 32">
<path d="M31.533 29.269c0.149 0.149 0.267 0.325 0.347 0.519s0.122 0.402 0.122 0.613-0.042 0.418-0.122 0.613c-0.080 0.194-0.198 0.371-0.347 0.519s-0.325 0.267-0.519 0.347c-0.194 0.080-0.402 0.122-0.613 0.122s-0.418-0.042-0.613-0.122c-0.194-0.080-0.371-0.198-0.519-0.347l-13.268-13.27-13.268 13.27c-0.3 0.3-0.707 0.469-1.132 0.469s-0.832-0.169-1.132-0.469c-0.3-0.3-0.469-0.707-0.469-1.132s0.169-0.832 0.469-1.132l13.27-13.268-13.27-13.268c-0.3-0.3-0.469-0.707-0.469-1.132s0.169-0.832 0.469-1.132c0.3-0.3 0.707-0.469 1.132-0.469s0.832 0.169 1.132 0.469l13.268 13.27 13.268-13.27c0.3-0.3 0.707-0.469 1.132-0.469s0.832 0.169 1.132 0.469c0.3 0.3 0.469 0.707 0.469 1.132s-0.169 0.832-0.469 1.132l-13.27 13.268 13.27 13.268z"></path>
</symbol>
<symbol id="icon-mail" viewBox="0 0 32 32">
<path d="M16.12 19.647c-0.288 0.18-0.612 0.252-0.9 0.252s-0.612-0.072-0.9-0.252l-14.321-8.743v11.622c0 2.483 2.015 4.498 4.498 4.498h21.481c2.483 0 4.498-2.015 4.498-4.498v-11.622l-14.356 8.743z"></path>
<path d="M25.979 4.571h-21.481c-2.123 0-3.922 1.511-4.354 3.526l15.112 9.211 15.076-9.211c-0.432-2.015-2.231-3.526-4.354-3.526z"></path>
</symbol>
<symbol id="icon-pause" viewBox="0 0 32 32">
<path d="M13 5v22c0 0.796-0.316 1.559-0.879 2.121s-1.326 0.879-2.121 0.879h-1c-0.796 0-1.559-0.316-2.121-0.879s-0.879-1.326-0.879-2.121v-22c0-0.796 0.316-1.559 0.879-2.121s1.326-0.879 2.121-0.879h1c0.796 0 1.559 0.316 2.121 0.879s0.879 1.326 0.879 2.121zM23 2h-1c-0.796 0-1.559 0.316-2.121 0.879s-0.879 1.326-0.879 2.121v22c0 0.796 0.316 1.559 0.879 2.121s1.326 0.879 2.121 0.879h1c0.796 0 1.559-0.316 2.121-0.879s0.879-1.326 0.879-2.121v-22c0-0.796-0.316-1.559-0.879-2.121s-1.326-0.879-2.121-0.879z"></path>
</symbol>
<symbol id="icon-phone" viewBox="0 0 32 32">
<path d="M29.615 22.366l-4.253-4.253c-1.519-1.519-4.101-0.911-4.709 1.063-0.456 1.367-1.975 2.127-3.342 1.823-3.038-0.759-7.139-4.709-7.899-7.899-0.456-1.367 0.456-2.886 1.823-3.342 1.975-0.608 2.582-3.19 1.063-4.709l-4.253-4.253c-1.215-1.063-3.038-1.063-4.101 0l-2.886 2.886c-2.886 3.038 0.304 11.088 7.443 18.227s15.189 10.481 18.227 7.443l2.886-2.886c1.063-1.215 1.063-3.038 0-4.101z"></path>
</symbol>
<symbol id="icon-arrow-down" viewBox="0 0 59 32">
<path d="M57.888 4.555l-26.666 26.667c-0.248 0.248-0.542 0.445-0.866 0.579s-0.671 0.203-1.021 0.203c-0.35 0-0.697-0.069-1.021-0.203s-0.618-0.331-0.866-0.579l-26.667-26.667c-0.5-0.5-0.781-1.179-0.781-1.887s0.281-1.386 0.781-1.887c0.5-0.5 1.179-0.781 1.887-0.781s1.386 0.281 1.887 0.781l24.78 24.783 24.78-24.783c0.248-0.248 0.542-0.444 0.866-0.578s0.671-0.203 1.021-0.203c0.35 0 0.697 0.069 1.021 0.203s0.618 0.331 0.866 0.578c0.248 0.248 0.444 0.542 0.579 0.866s0.203 0.671 0.203 1.021-0.069 0.697-0.203 1.021c-0.134 0.324-0.331 0.618-0.579 0.866z"></path>
</symbol>
</defs>
</svg>
