<!-- Generated by IcoMoon.io -->
<svg version="1.1" xmlns="http://www.w3.org/2000/svg" width="38" height="32" viewBox="0 0 38 32">
<path d="M38.401 16.001c0 0.424-0.169 0.831-0.469 1.131s-0.707 0.469-1.131 0.469h-31.338l11.67 11.668c0.149 0.149 0.267 0.325 0.347 0.519s0.122 0.402 0.122 0.613c0 0.21-0.041 0.418-0.122 0.613s-0.198 0.371-0.347 0.519c-0.149 0.149-0.325 0.267-0.519 0.347s-0.402 0.122-0.613 0.122c-0.21 0-0.418-0.042-0.613-0.122s-0.371-0.198-0.519-0.347l-14.4-14.4c-0.149-0.149-0.267-0.325-0.347-0.519s-0.122-0.402-0.122-0.613c0-0.21 0.041-0.418 0.122-0.613s0.199-0.371 0.347-0.519l14.4-14.4c0.3-0.3 0.707-0.469 1.132-0.469s0.832 0.169 1.132 0.469 0.469 0.707 0.469 1.132c0 0.425-0.169 0.832-0.469 1.132l-11.67 11.668h31.338c0.424 0 0.831 0.169 1.131 0.469s0.469 0.707 0.469 1.131z"></path>
</svg>
