<!-- Generated by IcoMoon.io -->
<svg version="1.1" xmlns="http://www.w3.org/2000/svg" width="59" height="32" viewBox="0 0 59 32">
<path d="M57.888 4.555l-26.666 26.667c-0.248 0.248-0.542 0.445-0.866 0.579s-0.671 0.203-1.021 0.203c-0.35 0-0.697-0.069-1.021-0.203s-0.618-0.331-0.866-0.579l-26.667-26.667c-0.5-0.5-0.781-1.179-0.781-1.887s0.281-1.386 0.781-1.887c0.5-0.5 1.179-0.781 1.887-0.781s1.386 0.281 1.887 0.781l24.78 24.783 24.78-24.783c0.248-0.248 0.542-0.444 0.866-0.578s0.671-0.203 1.021-0.203c0.35 0 0.697 0.069 1.021 0.203s0.618 0.331 0.866 0.578c0.248 0.248 0.444 0.542 0.579 0.866s0.203 0.671 0.203 1.021-0.069 0.697-0.203 1.021c-0.134 0.324-0.331 0.618-0.579 0.866z"></path>
</svg>
