<!-- Generated by IcoMoon.io -->
<svg version="1.1" xmlns="http://www.w3.org/2000/svg" width="38" height="32" viewBox="0 0 38 32">
<path d="M37.932 17.133l-14.4 14.4c-0.3 0.3-0.707 0.469-1.132 0.469s-0.832-0.169-1.132-0.469c-0.3-0.3-0.469-0.707-0.469-1.132s0.169-0.832 0.469-1.132l11.67-11.668h-31.338c-0.424 0-0.831-0.169-1.131-0.469s-0.469-0.707-0.469-1.131c0-0.424 0.169-0.831 0.469-1.131s0.707-0.469 1.131-0.469h31.338l-11.67-11.668c-0.3-0.3-0.469-0.707-0.469-1.132s0.169-0.832 0.469-1.132c0.3-0.3 0.707-0.469 1.132-0.469s0.832 0.169 1.132 0.469l14.4 14.4c0.148 0.149 0.267 0.325 0.347 0.519s0.122 0.402 0.122 0.613-0.042 0.418-0.122 0.613c-0.081 0.194-0.199 0.371-0.347 0.519z"></path>
</svg>
