<!-- Generated by IcoMoon.io -->
<svg version="1.1" xmlns="http://www.w3.org/2000/svg" width="28" height="32" viewBox="0 0 28 32">
<path d="M22.054 3.459h-2.162v-2.162c0-0.344-0.137-0.674-0.38-0.917s-0.573-0.38-0.917-0.38c-0.344 0-0.674 0.137-0.917 0.38s-0.38 0.573-0.38 0.917v2.162h-7.784v-2.162c0-0.344-0.137-0.674-0.38-0.917s-0.573-0.38-0.917-0.38c-0.344 0-0.674 0.137-0.917 0.38s-0.38 0.573-0.38 0.917v2.162h-2.162c-1.262 0-2.471 0.501-3.364 1.393s-1.393 2.102-1.393 3.364v19.027c0 1.262 0.501 2.472 1.393 3.364s2.102 1.393 3.364 1.393h17.297c1.262 0 2.472-0.501 3.364-1.393s1.393-2.102 1.393-3.364v-19.027c0-1.262-0.501-2.471-1.393-3.364s-2.102-1.393-3.364-1.393zM4.757 6.054h2.162v2.162c0 0.344 0.137 0.674 0.38 0.917s0.573 0.38 0.917 0.38c0.344 0 0.674-0.137 0.917-0.38s0.38-0.573 0.38-0.917v-2.162h7.784v2.162c0 0.344 0.137 0.674 0.38 0.917s0.573 0.38 0.917 0.38c0.344 0 0.674-0.137 0.917-0.38s0.38-0.573 0.38-0.917v-2.162h2.162c0.573 0 1.123 0.228 1.529 0.633s0.633 0.955 0.633 1.529v4.757h-21.622v-4.757c0-0.573 0.228-1.123 0.633-1.529s0.955-0.633 1.529-0.633zM22.054 29.405h-17.297c-0.573 0-1.123-0.228-1.529-0.633s-0.633-0.956-0.633-1.529v-11.676h21.622v11.676c0 0.573-0.228 1.123-0.633 1.529s-0.956 0.633-1.529 0.633z"></path>
</svg>
