<!-- Generated by IcoMoon.io -->
<svg version="1.1" xmlns="http://www.w3.org/2000/svg" width="32" height="32" viewBox="0 0 32 32">
<path d="M31.533 29.269c0.149 0.149 0.267 0.325 0.347 0.519s0.122 0.402 0.122 0.613-0.042 0.418-0.122 0.613c-0.080 0.194-0.198 0.371-0.347 0.519s-0.325 0.267-0.519 0.347c-0.194 0.080-0.402 0.122-0.613 0.122s-0.418-0.042-0.613-0.122c-0.194-0.080-0.371-0.198-0.519-0.347l-13.268-13.27-13.268 13.27c-0.3 0.3-0.707 0.469-1.132 0.469s-0.832-0.169-1.132-0.469c-0.3-0.3-0.469-0.707-0.469-1.132s0.169-0.832 0.469-1.132l13.27-13.268-13.27-13.268c-0.3-0.3-0.469-0.707-0.469-1.132s0.169-0.832 0.469-1.132c0.3-0.3 0.707-0.469 1.132-0.469s0.832 0.169 1.132 0.469l13.268 13.27 13.268-13.27c0.3-0.3 0.707-0.469 1.132-0.469s0.832 0.169 1.132 0.469c0.3 0.3 0.469 0.707 0.469 1.132s-0.169 0.832-0.469 1.132l-13.27 13.268 13.27 13.268z"></path>
</svg>
