<!-- Generated by IcoMoon.io -->
<svg version="1.1" xmlns="http://www.w3.org/2000/svg" width="28" height="32" viewBox="0 0 28 32">
<path d="M13.369 0c3.546 0 6.948 1.409 9.455 3.916s3.914 5.908 3.914 9.453c0 9.915-12.063 18.072-12.66 18.406-0.206 0.148-0.455 0.227-0.709 0.225-0.253 0.002-0.501-0.077-0.707-0.225-0.525-0.333-12.662-8.491-12.662-18.406 0-3.546 1.409-6.946 3.916-9.453s5.908-3.916 9.453-3.916zM13.369 2.674c-2.847-0.009-5.582 1.112-7.604 3.117s-3.164 4.731-3.178 7.578c0 7.262 8.262 13.904 10.781 15.75 2.519-1.846 10.783-8.488 10.783-15.75-0.014-2.847-1.158-5.573-3.18-7.578s-4.756-3.126-7.603-3.117zM12.445 7.939c0.92-0.183 1.874-0.087 2.74 0.271s1.608 0.966 2.129 1.746c0.521 0.78 0.799 1.698 0.799 2.637-0 1.258-0.499 2.464-1.389 3.354s-2.097 1.389-3.355 1.389c-0.938-0-1.855-0.278-2.635-0.799s-1.389-1.262-1.748-2.129c-0.359-0.867-0.452-1.82-0.27-2.74s0.635-1.766 1.299-2.43c0.663-0.663 1.51-1.116 2.43-1.299zM13.369 10.438c-0.426 0-0.843 0.126-1.197 0.363s-0.632 0.573-0.795 0.967c-0.163 0.394-0.204 0.828-0.121 1.246s0.288 0.802 0.59 1.104 0.685 0.507 1.104 0.59c0.418 0.083 0.852 0.042 1.246-0.121s0.73-0.441 0.967-0.795c0.237-0.354 0.363-0.771 0.363-1.197 0-0.572-0.226-1.121-0.631-1.525s-0.954-0.631-1.525-0.631z"></path>
</svg>
