<!-- Generated by IcoMoon.io -->
<svg version="1.1" xmlns="http://www.w3.org/2000/svg" width="32" height="32" viewBox="0 0 32 32">
<path d="M13 5v22c0 0.796-0.316 1.559-0.879 2.121s-1.326 0.879-2.121 0.879h-1c-0.796 0-1.559-0.316-2.121-0.879s-0.879-1.326-0.879-2.121v-22c0-0.796 0.316-1.559 0.879-2.121s1.326-0.879 2.121-0.879h1c0.796 0 1.559 0.316 2.121 0.879s0.879 1.326 0.879 2.121zM23 2h-1c-0.796 0-1.559 0.316-2.121 0.879s-0.879 1.326-0.879 2.121v22c0 0.796 0.316 1.559 0.879 2.121s1.326 0.879 2.121 0.879h1c0.796 0 1.559-0.316 2.121-0.879s0.879-1.326 0.879-2.121v-22c0-0.796-0.316-1.559-0.879-2.121s-1.326-0.879-2.121-0.879z"></path>
</svg>
