<!-- Generated by IcoMoon.io -->
<svg version="1.1" xmlns="http://www.w3.org/2000/svg" width="32" height="32" viewBox="0 0 32 32">
<path d="M29.615 22.366l-4.253-4.253c-1.519-1.519-4.101-0.911-4.709 1.063-0.456 1.367-1.975 2.127-3.342 1.823-3.038-0.759-7.139-4.709-7.899-7.899-0.456-1.367 0.456-2.886 1.823-3.342 1.975-0.608 2.582-3.19 1.063-4.709l-4.253-4.253c-1.215-1.063-3.038-1.063-4.101 0l-2.886 2.886c-2.886 3.038 0.304 11.088 7.443 18.227s15.189 10.481 18.227 7.443l2.886-2.886c1.063-1.215 1.063-3.038 0-4.101z"></path>
</svg>
